<mxfile host="app.diagrams.net" modified="2023-07-06T19:55:12.056Z" agent="Mozilla/5.0 (Windows NT 10.0; Win64; x64) AppleWebKit/537.36 (KHTML, like Gecko) Chrome/114.0.0.0 Safari/537.36" etag="N4I9BdfygbvHthzBeQXR" version="21.5.0" type="device">
  <diagram id="R2lEEEUBdFMjLlhIrx00" name="Page-1">
    <mxGraphModel dx="2074" dy="2248" grid="1" gridSize="10" guides="1" tooltips="1" connect="1" arrows="1" fold="1" page="1" pageScale="1" pageWidth="850" pageHeight="1100" math="0" shadow="0" extFonts="Permanent Marker^https://fonts.googleapis.com/css?family=Permanent+Marker">
      <root>
        <mxCell id="0" />
        <mxCell id="1" parent="0" />
        <mxCell id="c1oTMmdCXk3jECOC1Jwr-11" style="rounded=0;orthogonalLoop=1;jettySize=auto;html=1;exitX=0.5;exitY=1;exitDx=0;exitDy=0;entryX=0.5;entryY=0;entryDx=0;entryDy=0;endArrow=none;endFill=0;" parent="1" source="c1oTMmdCXk3jECOC1Jwr-1" target="c1oTMmdCXk3jECOC1Jwr-2" edge="1">
          <mxGeometry relative="1" as="geometry" />
        </mxCell>
        <mxCell id="c1oTMmdCXk3jECOC1Jwr-12" style="rounded=0;orthogonalLoop=1;jettySize=auto;html=1;exitX=0.5;exitY=1;exitDx=0;exitDy=0;entryX=0;entryY=0;entryDx=0;entryDy=0;endArrow=none;endFill=0;" parent="1" source="c1oTMmdCXk3jECOC1Jwr-1" target="c1oTMmdCXk3jECOC1Jwr-3" edge="1">
          <mxGeometry relative="1" as="geometry" />
        </mxCell>
        <mxCell id="c1oTMmdCXk3jECOC1Jwr-14" style="edgeStyle=orthogonalEdgeStyle;rounded=0;orthogonalLoop=1;jettySize=auto;html=1;exitX=1;exitY=0.5;exitDx=0;exitDy=0;entryX=0;entryY=0.5;entryDx=0;entryDy=0;endArrow=none;endFill=0;" parent="1" source="c1oTMmdCXk3jECOC1Jwr-1" target="c1oTMmdCXk3jECOC1Jwr-13" edge="1">
          <mxGeometry relative="1" as="geometry" />
        </mxCell>
        <mxCell id="c1oTMmdCXk3jECOC1Jwr-1" value="Lieferant" style="rounded=0;whiteSpace=wrap;html=1;strokeWidth=3;" parent="1" vertex="1">
          <mxGeometry x="175" y="310" width="120" height="60" as="geometry" />
        </mxCell>
        <mxCell id="c1oTMmdCXk3jECOC1Jwr-2" value="Lieferantenname" style="ellipse;whiteSpace=wrap;html=1;strokeColor=#66B2FF;" parent="1" vertex="1">
          <mxGeometry x="165" y="510" width="120" height="50" as="geometry" />
        </mxCell>
        <mxCell id="c1oTMmdCXk3jECOC1Jwr-3" value="PLZ" style="ellipse;whiteSpace=wrap;html=1;strokeColor=#66B2FF;" parent="1" vertex="1">
          <mxGeometry x="390" y="465" width="100" height="50" as="geometry" />
        </mxCell>
        <mxCell id="c1oTMmdCXk3jECOC1Jwr-4" value="Stasse" style="ellipse;whiteSpace=wrap;html=1;strokeColor=#66B2FF;" parent="1" vertex="1">
          <mxGeometry x="325" y="230" width="100" height="60" as="geometry" />
        </mxCell>
        <mxCell id="c1oTMmdCXk3jECOC1Jwr-5" value="Ort" style="ellipse;whiteSpace=wrap;html=1;strokeColor=#66B2FF;" parent="1" vertex="1">
          <mxGeometry x="195" y="180" width="100" height="60" as="geometry" />
        </mxCell>
        <mxCell id="c1oTMmdCXk3jECOC1Jwr-6" value="&lt;u&gt;LieferantenNr&lt;/u&gt;" style="ellipse;whiteSpace=wrap;html=1;strokeColor=#66B2FF;" parent="1" vertex="1">
          <mxGeometry x="60" y="210" width="100" height="60" as="geometry" />
        </mxCell>
        <mxCell id="c1oTMmdCXk3jECOC1Jwr-7" value="" style="endArrow=none;html=1;rounded=0;exitX=0.5;exitY=0;exitDx=0;exitDy=0;entryX=0.5;entryY=1;entryDx=0;entryDy=0;" parent="1" source="c1oTMmdCXk3jECOC1Jwr-1" target="c1oTMmdCXk3jECOC1Jwr-6" edge="1">
          <mxGeometry width="50" height="50" relative="1" as="geometry">
            <mxPoint x="250" y="270" as="sourcePoint" />
            <mxPoint x="300" y="220" as="targetPoint" />
          </mxGeometry>
        </mxCell>
        <mxCell id="c1oTMmdCXk3jECOC1Jwr-8" value="" style="endArrow=none;html=1;rounded=0;exitX=0.5;exitY=0;exitDx=0;exitDy=0;entryX=0.5;entryY=1;entryDx=0;entryDy=0;" parent="1" source="c1oTMmdCXk3jECOC1Jwr-1" target="c1oTMmdCXk3jECOC1Jwr-5" edge="1">
          <mxGeometry width="50" height="50" relative="1" as="geometry">
            <mxPoint x="250" y="270" as="sourcePoint" />
            <mxPoint x="300" y="220" as="targetPoint" />
          </mxGeometry>
        </mxCell>
        <mxCell id="c1oTMmdCXk3jECOC1Jwr-9" value="" style="endArrow=none;html=1;rounded=0;entryX=0;entryY=0.5;entryDx=0;entryDy=0;exitX=0.5;exitY=0;exitDx=0;exitDy=0;" parent="1" source="c1oTMmdCXk3jECOC1Jwr-1" target="c1oTMmdCXk3jECOC1Jwr-4" edge="1">
          <mxGeometry width="50" height="50" relative="1" as="geometry">
            <mxPoint x="250" y="270" as="sourcePoint" />
            <mxPoint x="300" y="220" as="targetPoint" />
          </mxGeometry>
        </mxCell>
        <mxCell id="c1oTMmdCXk3jECOC1Jwr-16" style="edgeStyle=orthogonalEdgeStyle;rounded=0;orthogonalLoop=1;jettySize=auto;html=1;exitX=1;exitY=0.5;exitDx=0;exitDy=0;entryX=0;entryY=0.5;entryDx=0;entryDy=0;endArrow=none;endFill=0;" parent="1" source="c1oTMmdCXk3jECOC1Jwr-13" target="c1oTMmdCXk3jECOC1Jwr-15" edge="1">
          <mxGeometry relative="1" as="geometry" />
        </mxCell>
        <mxCell id="c1oTMmdCXk3jECOC1Jwr-13" value="liefert" style="rhombus;whiteSpace=wrap;html=1;strokeColor=#FFB366;strokeWidth=3;" parent="1" vertex="1">
          <mxGeometry x="470" y="300" width="80" height="80" as="geometry" />
        </mxCell>
        <mxCell id="c1oTMmdCXk3jECOC1Jwr-15" value="Zutat" style="rounded=0;whiteSpace=wrap;html=1;strokeWidth=3;" parent="1" vertex="1">
          <mxGeometry x="710" y="310" width="120" height="60" as="geometry" />
        </mxCell>
        <mxCell id="c1oTMmdCXk3jECOC1Jwr-39" style="edgeStyle=none;rounded=0;orthogonalLoop=1;jettySize=auto;html=1;exitX=1;exitY=1;exitDx=0;exitDy=0;entryX=0;entryY=1;entryDx=0;entryDy=0;endArrow=none;endFill=0;" parent="1" source="c1oTMmdCXk3jECOC1Jwr-17" target="c1oTMmdCXk3jECOC1Jwr-73" edge="1">
          <mxGeometry relative="1" as="geometry" />
        </mxCell>
        <mxCell id="c1oTMmdCXk3jECOC1Jwr-17" value="&lt;u&gt;ZutatenNr&lt;/u&gt;" style="ellipse;whiteSpace=wrap;html=1;strokeColor=#66B2FF;" parent="1" vertex="1">
          <mxGeometry x="530" y="220" width="100" height="60" as="geometry" />
        </mxCell>
        <mxCell id="c1oTMmdCXk3jECOC1Jwr-40" style="edgeStyle=none;rounded=0;orthogonalLoop=1;jettySize=auto;html=1;exitX=1;exitY=1;exitDx=0;exitDy=0;entryX=0.25;entryY=0;entryDx=0;entryDy=0;endArrow=none;endFill=0;" parent="1" source="c1oTMmdCXk3jECOC1Jwr-19" target="c1oTMmdCXk3jECOC1Jwr-15" edge="1">
          <mxGeometry relative="1" as="geometry" />
        </mxCell>
        <mxCell id="c1oTMmdCXk3jECOC1Jwr-19" value="Bezeichnung" style="ellipse;whiteSpace=wrap;html=1;strokeColor=#66B2FF;" parent="1" vertex="1">
          <mxGeometry x="570" y="150" width="100" height="60" as="geometry" />
        </mxCell>
        <mxCell id="c1oTMmdCXk3jECOC1Jwr-32" style="rounded=0;orthogonalLoop=1;jettySize=auto;html=1;exitX=0.5;exitY=0;exitDx=0;exitDy=0;entryX=0.5;entryY=1;entryDx=0;entryDy=0;endArrow=none;endFill=0;" parent="1" source="c1oTMmdCXk3jECOC1Jwr-22" target="c1oTMmdCXk3jECOC1Jwr-15" edge="1">
          <mxGeometry relative="1" as="geometry" />
        </mxCell>
        <mxCell id="c1oTMmdCXk3jECOC1Jwr-22" value="Protein" style="ellipse;whiteSpace=wrap;html=1;strokeColor=#66B2FF;" parent="1" vertex="1">
          <mxGeometry x="530" y="410" width="100" height="60" as="geometry" />
        </mxCell>
        <mxCell id="c1oTMmdCXk3jECOC1Jwr-33" style="edgeStyle=none;rounded=0;orthogonalLoop=1;jettySize=auto;html=1;exitX=0.5;exitY=0;exitDx=0;exitDy=0;entryX=0.5;entryY=1;entryDx=0;entryDy=0;endArrow=none;endFill=0;" parent="1" source="c1oTMmdCXk3jECOC1Jwr-23" target="c1oTMmdCXk3jECOC1Jwr-15" edge="1">
          <mxGeometry relative="1" as="geometry" />
        </mxCell>
        <mxCell id="c1oTMmdCXk3jECOC1Jwr-23" value="Kalorien" style="ellipse;whiteSpace=wrap;html=1;strokeColor=#66B2FF;" parent="1" vertex="1">
          <mxGeometry x="590" y="480" width="100" height="60" as="geometry" />
        </mxCell>
        <mxCell id="c1oTMmdCXk3jECOC1Jwr-34" style="edgeStyle=none;rounded=0;orthogonalLoop=1;jettySize=auto;html=1;exitX=0.5;exitY=0;exitDx=0;exitDy=0;endArrow=none;endFill=0;entryX=0.5;entryY=1;entryDx=0;entryDy=0;" parent="1" source="c1oTMmdCXk3jECOC1Jwr-24" target="c1oTMmdCXk3jECOC1Jwr-15" edge="1">
          <mxGeometry relative="1" as="geometry">
            <mxPoint x="830" y="350" as="targetPoint" />
          </mxGeometry>
        </mxCell>
        <mxCell id="c1oTMmdCXk3jECOC1Jwr-24" value="Kohlenhydrate&amp;nbsp;" style="ellipse;whiteSpace=wrap;html=1;strokeColor=#66B2FF;" parent="1" vertex="1">
          <mxGeometry x="720" y="480" width="100" height="60" as="geometry" />
        </mxCell>
        <mxCell id="c1oTMmdCXk3jECOC1Jwr-35" style="edgeStyle=none;rounded=0;orthogonalLoop=1;jettySize=auto;html=1;exitX=0;exitY=0;exitDx=0;exitDy=0;entryX=0.5;entryY=1;entryDx=0;entryDy=0;endArrow=none;endFill=0;" parent="1" source="c1oTMmdCXk3jECOC1Jwr-25" target="c1oTMmdCXk3jECOC1Jwr-15" edge="1">
          <mxGeometry relative="1" as="geometry" />
        </mxCell>
        <mxCell id="c1oTMmdCXk3jECOC1Jwr-25" value="Einheit" style="ellipse;whiteSpace=wrap;html=1;strokeColor=#66B2FF;" parent="1" vertex="1">
          <mxGeometry x="910" y="460" width="100" height="60" as="geometry" />
        </mxCell>
        <mxCell id="c1oTMmdCXk3jECOC1Jwr-36" style="edgeStyle=none;rounded=0;orthogonalLoop=1;jettySize=auto;html=1;exitX=0.5;exitY=1;exitDx=0;exitDy=0;entryX=1;entryY=1;entryDx=0;entryDy=0;endArrow=none;endFill=0;" parent="1" source="c1oTMmdCXk3jECOC1Jwr-26" target="c1oTMmdCXk3jECOC1Jwr-73" edge="1">
          <mxGeometry relative="1" as="geometry" />
        </mxCell>
        <mxCell id="c1oTMmdCXk3jECOC1Jwr-26" value="Lieferant" style="ellipse;whiteSpace=wrap;html=1;strokeColor=#66B2FF;" parent="1" vertex="1">
          <mxGeometry x="1020" y="170" width="100" height="60" as="geometry" />
        </mxCell>
        <mxCell id="c1oTMmdCXk3jECOC1Jwr-37" style="edgeStyle=none;rounded=0;orthogonalLoop=1;jettySize=auto;html=1;exitX=0;exitY=1;exitDx=0;exitDy=0;endArrow=none;endFill=0;entryX=0.75;entryY=0;entryDx=0;entryDy=0;" parent="1" source="c1oTMmdCXk3jECOC1Jwr-27" target="c1oTMmdCXk3jECOC1Jwr-15" edge="1">
          <mxGeometry relative="1" as="geometry">
            <mxPoint x="830" y="340" as="targetPoint" />
          </mxGeometry>
        </mxCell>
        <mxCell id="c1oTMmdCXk3jECOC1Jwr-27" value="Nettopreis" style="ellipse;whiteSpace=wrap;html=1;strokeColor=#66B2FF;" parent="1" vertex="1">
          <mxGeometry x="910" y="160" width="100" height="60" as="geometry" />
        </mxCell>
        <mxCell id="c1oTMmdCXk3jECOC1Jwr-38" style="edgeStyle=none;rounded=0;orthogonalLoop=1;jettySize=auto;html=1;exitX=0.5;exitY=1;exitDx=0;exitDy=0;endArrow=none;endFill=0;entryX=1;entryY=1;entryDx=0;entryDy=0;" parent="1" source="c1oTMmdCXk3jECOC1Jwr-28" target="c1oTMmdCXk3jECOC1Jwr-73" edge="1">
          <mxGeometry relative="1" as="geometry">
            <mxPoint x="830" y="340" as="targetPoint" />
          </mxGeometry>
        </mxCell>
        <mxCell id="c1oTMmdCXk3jECOC1Jwr-28" value="Bestand" style="ellipse;whiteSpace=wrap;html=1;strokeColor=#66B2FF;" parent="1" vertex="1">
          <mxGeometry x="790" y="150" width="100" height="60" as="geometry" />
        </mxCell>
        <mxCell id="c1oTMmdCXk3jECOC1Jwr-42" style="edgeStyle=none;rounded=0;orthogonalLoop=1;jettySize=auto;html=1;exitX=0.5;exitY=1;exitDx=0;exitDy=0;entryX=0.394;entryY=-0.041;entryDx=0;entryDy=0;entryPerimeter=0;endArrow=none;endFill=0;" parent="1" source="c1oTMmdCXk3jECOC1Jwr-41" target="c1oTMmdCXk3jECOC1Jwr-15" edge="1">
          <mxGeometry relative="1" as="geometry" />
        </mxCell>
        <mxCell id="c1oTMmdCXk3jECOC1Jwr-44" style="edgeStyle=none;rounded=0;orthogonalLoop=1;jettySize=auto;html=1;exitX=1;exitY=0.5;exitDx=0;exitDy=0;endArrow=none;endFill=0;" parent="1" source="c1oTMmdCXk3jECOC1Jwr-41" target="c1oTMmdCXk3jECOC1Jwr-43" edge="1">
          <mxGeometry relative="1" as="geometry" />
        </mxCell>
        <mxCell id="c1oTMmdCXk3jECOC1Jwr-46" style="edgeStyle=none;rounded=0;orthogonalLoop=1;jettySize=auto;html=1;exitX=0.5;exitY=0;exitDx=0;exitDy=0;endArrow=none;endFill=0;" parent="1" source="c1oTMmdCXk3jECOC1Jwr-41" target="c1oTMmdCXk3jECOC1Jwr-45" edge="1">
          <mxGeometry relative="1" as="geometry" />
        </mxCell>
        <mxCell id="c1oTMmdCXk3jECOC1Jwr-41" value="enthält" style="rhombus;whiteSpace=wrap;html=1;strokeColor=#FFB366;strokeWidth=3;" parent="1" vertex="1">
          <mxGeometry x="720" y="20" width="80" height="80" as="geometry" />
        </mxCell>
        <mxCell id="c1oTMmdCXk3jECOC1Jwr-43" value="Menge" style="ellipse;whiteSpace=wrap;html=1;strokeColor=#66B2FF;" parent="1" vertex="1">
          <mxGeometry x="930" y="-20" width="100" height="60" as="geometry" />
        </mxCell>
        <mxCell id="c1oTMmdCXk3jECOC1Jwr-48" style="edgeStyle=none;rounded=0;orthogonalLoop=1;jettySize=auto;html=1;exitX=1;exitY=0.5;exitDx=0;exitDy=0;entryX=0;entryY=0.5;entryDx=0;entryDy=0;endArrow=none;endFill=0;" parent="1" source="c1oTMmdCXk3jECOC1Jwr-45" target="c1oTMmdCXk3jECOC1Jwr-47" edge="1">
          <mxGeometry relative="1" as="geometry" />
        </mxCell>
        <mxCell id="c1oTMmdCXk3jECOC1Jwr-51" style="edgeStyle=none;rounded=0;orthogonalLoop=1;jettySize=auto;html=1;exitX=1;exitY=0.5;exitDx=0;exitDy=0;endArrow=none;endFill=0;" parent="1" source="c1oTMmdCXk3jECOC1Jwr-45" target="c1oTMmdCXk3jECOC1Jwr-49" edge="1">
          <mxGeometry relative="1" as="geometry" />
        </mxCell>
        <mxCell id="c1oTMmdCXk3jECOC1Jwr-52" style="edgeStyle=none;rounded=0;orthogonalLoop=1;jettySize=auto;html=1;exitX=0;exitY=0.5;exitDx=0;exitDy=0;entryX=1;entryY=1;entryDx=0;entryDy=0;endArrow=none;endFill=0;" parent="1" source="c1oTMmdCXk3jECOC1Jwr-45" target="c1oTMmdCXk3jECOC1Jwr-50" edge="1">
          <mxGeometry relative="1" as="geometry" />
        </mxCell>
        <mxCell id="c1oTMmdCXk3jECOC1Jwr-45" value="Bestellung" style="rounded=0;whiteSpace=wrap;html=1;strokeWidth=3;" parent="1" vertex="1">
          <mxGeometry x="700" y="-160" width="120" height="60" as="geometry" />
        </mxCell>
        <mxCell id="c1oTMmdCXk3jECOC1Jwr-47" value="Bestelldatum" style="ellipse;whiteSpace=wrap;html=1;strokeColor=#66B2FF;" parent="1" vertex="1">
          <mxGeometry x="890" y="-160" width="100" height="60" as="geometry" />
        </mxCell>
        <mxCell id="c1oTMmdCXk3jECOC1Jwr-49" value="Rechnungsbetrag" style="ellipse;whiteSpace=wrap;html=1;strokeColor=#66B2FF;" parent="1" vertex="1">
          <mxGeometry x="850" y="-240" width="100" height="60" as="geometry" />
        </mxCell>
        <mxCell id="c1oTMmdCXk3jECOC1Jwr-50" value="&lt;u&gt;BestellNr&lt;/u&gt;" style="ellipse;whiteSpace=wrap;html=1;strokeColor=#66B2FF;" parent="1" vertex="1">
          <mxGeometry x="560" y="-220" width="100" height="60" as="geometry" />
        </mxCell>
        <mxCell id="c1oTMmdCXk3jECOC1Jwr-54" style="edgeStyle=none;rounded=0;orthogonalLoop=1;jettySize=auto;html=1;exitX=0.5;exitY=1;exitDx=0;exitDy=0;entryX=0.5;entryY=0;entryDx=0;entryDy=0;endArrow=none;endFill=0;" parent="1" source="c1oTMmdCXk3jECOC1Jwr-53" target="c1oTMmdCXk3jECOC1Jwr-45" edge="1">
          <mxGeometry relative="1" as="geometry" />
        </mxCell>
        <mxCell id="c1oTMmdCXk3jECOC1Jwr-53" value="tätigt" style="rhombus;whiteSpace=wrap;html=1;strokeColor=#FFB366;strokeWidth=3;" parent="1" vertex="1">
          <mxGeometry x="720" y="-310" width="80" height="80" as="geometry" />
        </mxCell>
        <mxCell id="c1oTMmdCXk3jECOC1Jwr-56" style="edgeStyle=none;rounded=0;orthogonalLoop=1;jettySize=auto;html=1;exitX=0.5;exitY=1;exitDx=0;exitDy=0;endArrow=none;endFill=0;" parent="1" source="c1oTMmdCXk3jECOC1Jwr-55" target="c1oTMmdCXk3jECOC1Jwr-53" edge="1">
          <mxGeometry relative="1" as="geometry" />
        </mxCell>
        <mxCell id="c1oTMmdCXk3jECOC1Jwr-471" style="edgeStyle=none;rounded=0;orthogonalLoop=1;jettySize=auto;html=1;exitX=1;exitY=0.25;exitDx=0;exitDy=0;entryX=0;entryY=0;entryDx=0;entryDy=0;fontColor=#FF3333;endArrow=none;endFill=0;" parent="1" source="c1oTMmdCXk3jECOC1Jwr-55" target="c1oTMmdCXk3jECOC1Jwr-469" edge="1">
          <mxGeometry relative="1" as="geometry" />
        </mxCell>
        <mxCell id="c1oTMmdCXk3jECOC1Jwr-55" value="Kunde" style="rounded=0;whiteSpace=wrap;html=1;strokeWidth=3;" parent="1" vertex="1">
          <mxGeometry x="700" y="-440" width="120" height="60" as="geometry" />
        </mxCell>
        <mxCell id="c1oTMmdCXk3jECOC1Jwr-72" style="edgeStyle=none;rounded=0;orthogonalLoop=1;jettySize=auto;html=1;exitX=0;exitY=0;exitDx=0;exitDy=0;entryX=1;entryY=0.25;entryDx=0;entryDy=0;endArrow=none;endFill=0;" parent="1" source="c1oTMmdCXk3jECOC1Jwr-57" target="c1oTMmdCXk3jECOC1Jwr-55" edge="1">
          <mxGeometry relative="1" as="geometry" />
        </mxCell>
        <mxCell id="c1oTMmdCXk3jECOC1Jwr-57" value="Ort" style="ellipse;whiteSpace=wrap;html=1;strokeColor=#66B2FF;" parent="1" vertex="1">
          <mxGeometry x="870" y="-360" width="100" height="60" as="geometry" />
        </mxCell>
        <mxCell id="c1oTMmdCXk3jECOC1Jwr-71" style="edgeStyle=none;rounded=0;orthogonalLoop=1;jettySize=auto;html=1;exitX=0;exitY=0.5;exitDx=0;exitDy=0;entryX=1;entryY=0.25;entryDx=0;entryDy=0;endArrow=none;endFill=0;" parent="1" source="c1oTMmdCXk3jECOC1Jwr-58" target="c1oTMmdCXk3jECOC1Jwr-55" edge="1">
          <mxGeometry relative="1" as="geometry" />
        </mxCell>
        <mxCell id="c1oTMmdCXk3jECOC1Jwr-58" value="PLZ" style="ellipse;whiteSpace=wrap;html=1;strokeColor=#66B2FF;" parent="1" vertex="1">
          <mxGeometry x="970" y="-520" width="100" height="60" as="geometry" />
        </mxCell>
        <mxCell id="c1oTMmdCXk3jECOC1Jwr-70" style="edgeStyle=none;rounded=0;orthogonalLoop=1;jettySize=auto;html=1;exitX=0;exitY=0.5;exitDx=0;exitDy=0;entryX=0.5;entryY=0;entryDx=0;entryDy=0;endArrow=none;endFill=0;" parent="1" source="c1oTMmdCXk3jECOC1Jwr-59" target="c1oTMmdCXk3jECOC1Jwr-55" edge="1">
          <mxGeometry relative="1" as="geometry" />
        </mxCell>
        <mxCell id="c1oTMmdCXk3jECOC1Jwr-59" value="HausNr" style="ellipse;whiteSpace=wrap;html=1;strokeColor=#66B2FF;" parent="1" vertex="1">
          <mxGeometry x="940" y="-600" width="100" height="60" as="geometry" />
        </mxCell>
        <mxCell id="c1oTMmdCXk3jECOC1Jwr-69" style="edgeStyle=none;rounded=0;orthogonalLoop=1;jettySize=auto;html=1;exitX=0;exitY=1;exitDx=0;exitDy=0;entryX=0.5;entryY=0;entryDx=0;entryDy=0;endArrow=none;endFill=0;" parent="1" source="c1oTMmdCXk3jECOC1Jwr-60" target="c1oTMmdCXk3jECOC1Jwr-55" edge="1">
          <mxGeometry relative="1" as="geometry" />
        </mxCell>
        <mxCell id="c1oTMmdCXk3jECOC1Jwr-60" value="Geburtsdatum" style="ellipse;whiteSpace=wrap;html=1;strokeColor=#66B2FF;" parent="1" vertex="1">
          <mxGeometry x="850" y="-650" width="100" height="60" as="geometry" />
        </mxCell>
        <mxCell id="c1oTMmdCXk3jECOC1Jwr-68" style="edgeStyle=none;rounded=0;orthogonalLoop=1;jettySize=auto;html=1;exitX=0.5;exitY=1;exitDx=0;exitDy=0;entryX=0.5;entryY=0;entryDx=0;entryDy=0;endArrow=none;endFill=0;" parent="1" source="c1oTMmdCXk3jECOC1Jwr-61" target="c1oTMmdCXk3jECOC1Jwr-55" edge="1">
          <mxGeometry relative="1" as="geometry" />
        </mxCell>
        <mxCell id="c1oTMmdCXk3jECOC1Jwr-61" value="Strasse" style="ellipse;whiteSpace=wrap;html=1;strokeColor=#66B2FF;" parent="1" vertex="1">
          <mxGeometry x="730" y="-660" width="100" height="60" as="geometry" />
        </mxCell>
        <mxCell id="c1oTMmdCXk3jECOC1Jwr-67" style="edgeStyle=none;rounded=0;orthogonalLoop=1;jettySize=auto;html=1;exitX=1;exitY=1;exitDx=0;exitDy=0;entryX=0.5;entryY=0;entryDx=0;entryDy=0;endArrow=none;endFill=0;" parent="1" source="c1oTMmdCXk3jECOC1Jwr-62" target="c1oTMmdCXk3jECOC1Jwr-55" edge="1">
          <mxGeometry relative="1" as="geometry" />
        </mxCell>
        <mxCell id="c1oTMmdCXk3jECOC1Jwr-62" value="Nachname" style="ellipse;whiteSpace=wrap;html=1;strokeColor=#66B2FF;" parent="1" vertex="1">
          <mxGeometry x="650" y="-600" width="100" height="60" as="geometry" />
        </mxCell>
        <mxCell id="c1oTMmdCXk3jECOC1Jwr-66" style="edgeStyle=none;rounded=0;orthogonalLoop=1;jettySize=auto;html=1;exitX=1;exitY=0.5;exitDx=0;exitDy=0;entryX=0.5;entryY=0;entryDx=0;entryDy=0;endArrow=none;endFill=0;" parent="1" source="c1oTMmdCXk3jECOC1Jwr-63" target="c1oTMmdCXk3jECOC1Jwr-55" edge="1">
          <mxGeometry relative="1" as="geometry" />
        </mxCell>
        <mxCell id="c1oTMmdCXk3jECOC1Jwr-63" value="Vorname" style="ellipse;whiteSpace=wrap;html=1;strokeColor=#66B2FF;" parent="1" vertex="1">
          <mxGeometry x="550" y="-570" width="100" height="60" as="geometry" />
        </mxCell>
        <mxCell id="c1oTMmdCXk3jECOC1Jwr-65" style="edgeStyle=none;rounded=0;orthogonalLoop=1;jettySize=auto;html=1;exitX=1;exitY=0.5;exitDx=0;exitDy=0;endArrow=none;endFill=0;entryX=0.5;entryY=0;entryDx=0;entryDy=0;" parent="1" source="c1oTMmdCXk3jECOC1Jwr-64" target="c1oTMmdCXk3jECOC1Jwr-55" edge="1">
          <mxGeometry relative="1" as="geometry" />
        </mxCell>
        <mxCell id="c1oTMmdCXk3jECOC1Jwr-64" value="&lt;u&gt;KundenNr&lt;/u&gt;" style="ellipse;whiteSpace=wrap;html=1;strokeColor=#66B2FF;" parent="1" vertex="1">
          <mxGeometry x="520" y="-500" width="100" height="60" as="geometry" />
        </mxCell>
        <mxCell id="c1oTMmdCXk3jECOC1Jwr-73" value="m" style="text;html=1;strokeColor=none;fillColor=none;align=center;verticalAlign=middle;whiteSpace=wrap;rounded=0;fontSize=15;fontStyle=1" parent="1" vertex="1">
          <mxGeometry x="740" y="280" width="60" height="30" as="geometry" />
        </mxCell>
        <mxCell id="c1oTMmdCXk3jECOC1Jwr-74" value="1" style="text;html=1;strokeColor=none;fillColor=none;align=center;verticalAlign=middle;whiteSpace=wrap;rounded=0;fontSize=15;fontStyle=1" parent="1" vertex="1">
          <mxGeometry x="740" y="-380" width="60" height="30" as="geometry" />
        </mxCell>
        <mxCell id="c1oTMmdCXk3jECOC1Jwr-75" value="n" style="text;html=1;strokeColor=none;fillColor=none;align=center;verticalAlign=middle;whiteSpace=wrap;rounded=0;fontSize=15;fontStyle=1" parent="1" vertex="1">
          <mxGeometry x="740" y="-190" width="60" height="30" as="geometry" />
        </mxCell>
        <mxCell id="c1oTMmdCXk3jECOC1Jwr-76" value="n" style="text;html=1;strokeColor=none;fillColor=none;align=center;verticalAlign=middle;whiteSpace=wrap;rounded=0;fontSize=15;fontStyle=1" parent="1" vertex="1">
          <mxGeometry x="740" y="-100" width="60" height="30" as="geometry" />
        </mxCell>
        <mxCell id="c1oTMmdCXk3jECOC1Jwr-77" value="n" style="text;html=1;strokeColor=none;fillColor=none;align=center;verticalAlign=middle;whiteSpace=wrap;rounded=0;fontStyle=1;fontSize=15;" parent="1" vertex="1">
          <mxGeometry x="660" y="310" width="60" height="30" as="geometry" />
        </mxCell>
        <mxCell id="c1oTMmdCXk3jECOC1Jwr-78" value="1" style="text;html=1;strokeColor=none;fillColor=none;align=center;verticalAlign=middle;whiteSpace=wrap;rounded=0;fontSize=15;fontStyle=1" parent="1" vertex="1">
          <mxGeometry x="285" y="310" width="60" height="30" as="geometry" />
        </mxCell>
        <mxCell id="c1oTMmdCXk3jECOC1Jwr-470" style="edgeStyle=none;rounded=0;orthogonalLoop=1;jettySize=auto;html=1;exitX=0;exitY=0.5;exitDx=0;exitDy=0;entryX=1;entryY=0.25;entryDx=0;entryDy=0;fontColor=#FF3333;endArrow=none;endFill=0;" parent="1" source="c1oTMmdCXk3jECOC1Jwr-468" target="c1oTMmdCXk3jECOC1Jwr-55" edge="1">
          <mxGeometry relative="1" as="geometry" />
        </mxCell>
        <mxCell id="c1oTMmdCXk3jECOC1Jwr-468" value="Email" style="ellipse;whiteSpace=wrap;html=1;strokeColor=#66B2FF;" parent="1" vertex="1">
          <mxGeometry x="1020" y="-440" width="100" height="60" as="geometry" />
        </mxCell>
        <mxCell id="c1oTMmdCXk3jECOC1Jwr-469" value="Telefon" style="ellipse;whiteSpace=wrap;html=1;strokeColor=#66B2FF;" parent="1" vertex="1">
          <mxGeometry x="1020" y="-370" width="100" height="60" as="geometry" />
        </mxCell>
        <mxCell id="c1oTMmdCXk3jECOC1Jwr-487" style="edgeStyle=none;rounded=0;orthogonalLoop=1;jettySize=auto;html=1;exitX=0.5;exitY=0;exitDx=0;exitDy=0;fontColor=#FF3333;endArrow=none;endFill=0;entryX=0.5;entryY=1;entryDx=0;entryDy=0;" parent="1" source="c1oTMmdCXk3jECOC1Jwr-484" target="c1oTMmdCXk3jECOC1Jwr-1" edge="1">
          <mxGeometry relative="1" as="geometry" />
        </mxCell>
        <mxCell id="c1oTMmdCXk3jECOC1Jwr-484" value="HausNr" style="ellipse;whiteSpace=wrap;html=1;strokeColor=#66B2FF;" parent="1" vertex="1">
          <mxGeometry x="295" y="500" width="100" height="50" as="geometry" />
        </mxCell>
        <mxCell id="c1oTMmdCXk3jECOC1Jwr-488" style="edgeStyle=none;rounded=0;orthogonalLoop=1;jettySize=auto;html=1;exitX=0.5;exitY=0;exitDx=0;exitDy=0;entryX=0.5;entryY=1;entryDx=0;entryDy=0;fontColor=#FF3333;endArrow=none;endFill=0;" parent="1" source="c1oTMmdCXk3jECOC1Jwr-485" target="c1oTMmdCXk3jECOC1Jwr-1" edge="1">
          <mxGeometry relative="1" as="geometry" />
        </mxCell>
        <mxCell id="c1oTMmdCXk3jECOC1Jwr-485" value="Telefon" style="ellipse;whiteSpace=wrap;html=1;strokeColor=#66B2FF;" parent="1" vertex="1">
          <mxGeometry x="50" y="515" width="100" height="50" as="geometry" />
        </mxCell>
        <mxCell id="c1oTMmdCXk3jECOC1Jwr-489" style="edgeStyle=none;rounded=0;orthogonalLoop=1;jettySize=auto;html=1;exitX=1;exitY=0;exitDx=0;exitDy=0;entryX=0.5;entryY=1;entryDx=0;entryDy=0;fontColor=#FF3333;endArrow=none;endFill=0;" parent="1" source="c1oTMmdCXk3jECOC1Jwr-486" target="c1oTMmdCXk3jECOC1Jwr-1" edge="1">
          <mxGeometry relative="1" as="geometry" />
        </mxCell>
        <mxCell id="c1oTMmdCXk3jECOC1Jwr-486" value="Email" style="ellipse;whiteSpace=wrap;html=1;strokeColor=#66B2FF;" parent="1" vertex="1">
          <mxGeometry x="20" y="430" width="100" height="50" as="geometry" />
        </mxCell>
        <mxCell id="vfS40ReO7jsWb6iFuYWP-2" style="rounded=0;orthogonalLoop=1;jettySize=auto;html=1;exitX=1;exitY=0.5;exitDx=0;exitDy=0;entryX=0;entryY=0.5;entryDx=0;entryDy=0;endArrow=none;endFill=0;" parent="1" source="vfS40ReO7jsWb6iFuYWP-1" target="c1oTMmdCXk3jECOC1Jwr-45" edge="1">
          <mxGeometry relative="1" as="geometry" />
        </mxCell>
        <mxCell id="vfS40ReO7jsWb6iFuYWP-1" value="KundenNr" style="ellipse;whiteSpace=wrap;html=1;strokeColor=#66B2FF;" parent="1" vertex="1">
          <mxGeometry x="550" y="-130" width="100" height="60" as="geometry" />
        </mxCell>
        <mxCell id="wbZqUix2uNGcEKKMy9o7-3" style="rounded=0;orthogonalLoop=1;jettySize=auto;html=1;exitX=0;exitY=1;exitDx=0;exitDy=0;endArrow=none;endFill=0;" parent="1" source="wbZqUix2uNGcEKKMy9o7-1" edge="1">
          <mxGeometry relative="1" as="geometry">
            <mxPoint x="800" y="60" as="targetPoint" />
          </mxGeometry>
        </mxCell>
        <mxCell id="wbZqUix2uNGcEKKMy9o7-1" value="&lt;u&gt;BestellNr&lt;/u&gt;" style="ellipse;whiteSpace=wrap;html=1;strokeColor=#66B2FF;" parent="1" vertex="1">
          <mxGeometry x="820" y="-50" width="100" height="60" as="geometry" />
        </mxCell>
        <mxCell id="wbZqUix2uNGcEKKMy9o7-4" style="edgeStyle=none;rounded=0;orthogonalLoop=1;jettySize=auto;html=1;exitX=0;exitY=0.5;exitDx=0;exitDy=0;entryX=1;entryY=0.5;entryDx=0;entryDy=0;endArrow=none;endFill=0;" parent="1" source="wbZqUix2uNGcEKKMy9o7-2" target="c1oTMmdCXk3jECOC1Jwr-41" edge="1">
          <mxGeometry relative="1" as="geometry" />
        </mxCell>
        <mxCell id="wbZqUix2uNGcEKKMy9o7-2" value="&lt;u&gt;ZutatenNr&lt;/u&gt;" style="ellipse;whiteSpace=wrap;html=1;strokeColor=#66B2FF;" parent="1" vertex="1">
          <mxGeometry x="880" y="50" width="100" height="60" as="geometry" />
        </mxCell>
        <mxCell id="EJtMW89hsBr0FEiRAVRH-5" value="Sammlung" style="rounded=0;whiteSpace=wrap;html=1;strokeWidth=3;" parent="1" vertex="1">
          <mxGeometry x="1210" y="170" width="120" height="60" as="geometry" />
        </mxCell>
        <mxCell id="EJtMW89hsBr0FEiRAVRH-6" value="SammlungsNr" style="ellipse;whiteSpace=wrap;html=1;align=center;strokeColor=#66b2ff;fontStyle=4" parent="1" vertex="1">
          <mxGeometry x="1300" width="100" height="60" as="geometry" />
        </mxCell>
        <mxCell id="EJtMW89hsBr0FEiRAVRH-8" value="enthält" style="rhombus;whiteSpace=wrap;html=1;strokeColor=#FFB366;strokeWidth=3;" parent="1" vertex="1">
          <mxGeometry x="1120" y="320" width="80" height="80" as="geometry" />
        </mxCell>
        <mxCell id="EJtMW89hsBr0FEiRAVRH-9" value="SammlungsNR" style="ellipse;whiteSpace=wrap;html=1;align=center;strokeColor=#66b2ff;fontStyle=4" parent="1" vertex="1">
          <mxGeometry x="1170" y="405" width="100" height="60" as="geometry" />
        </mxCell>
        <mxCell id="EJtMW89hsBr0FEiRAVRH-10" value="ZutatenNr" style="ellipse;whiteSpace=wrap;html=1;align=center;strokeColor=#66b2ff;fontStyle=4" parent="1" vertex="1">
          <mxGeometry x="1050" y="260" width="100" height="60" as="geometry" />
        </mxCell>
        <mxCell id="EJtMW89hsBr0FEiRAVRH-16" value="" style="endArrow=none;html=1;rounded=0;exitX=0;exitY=0.5;exitDx=0;exitDy=0;entryX=1;entryY=0.5;entryDx=0;entryDy=0;" parent="1" source="EJtMW89hsBr0FEiRAVRH-8" target="c1oTMmdCXk3jECOC1Jwr-15" edge="1">
          <mxGeometry relative="1" as="geometry">
            <mxPoint x="940" y="130" as="sourcePoint" />
            <mxPoint x="910" y="380" as="targetPoint" />
          </mxGeometry>
        </mxCell>
        <mxCell id="EJtMW89hsBr0FEiRAVRH-17" value="n" style="resizable=0;html=1;whiteSpace=wrap;align=right;verticalAlign=bottom;fontStyle=1;fontSize=15;" parent="EJtMW89hsBr0FEiRAVRH-16" connectable="0" vertex="1">
          <mxGeometry x="1" relative="1" as="geometry">
            <mxPoint x="30" as="offset" />
          </mxGeometry>
        </mxCell>
        <mxCell id="EJtMW89hsBr0FEiRAVRH-19" value="" style="endArrow=none;html=1;rounded=0;exitX=1;exitY=0.5;exitDx=0;exitDy=0;entryX=0;entryY=0.5;entryDx=0;entryDy=0;" parent="1" source="EJtMW89hsBr0FEiRAVRH-8" target="EJtMW89hsBr0FEiRAVRH-5" edge="1">
          <mxGeometry relative="1" as="geometry">
            <mxPoint x="1290" y="370" as="sourcePoint" />
            <mxPoint x="1110" y="350" as="targetPoint" />
          </mxGeometry>
        </mxCell>
        <mxCell id="EJtMW89hsBr0FEiRAVRH-20" value="m" style="resizable=0;html=1;whiteSpace=wrap;align=right;verticalAlign=bottom;fontStyle=1;fontSize=15;" parent="EJtMW89hsBr0FEiRAVRH-19" connectable="0" vertex="1">
          <mxGeometry x="1" relative="1" as="geometry">
            <mxPoint x="-15" as="offset" />
          </mxGeometry>
        </mxCell>
        <mxCell id="EJtMW89hsBr0FEiRAVRH-21" value="" style="endArrow=none;html=1;rounded=0;exitX=0.5;exitY=1;exitDx=0;exitDy=0;entryX=0.5;entryY=0;entryDx=0;entryDy=0;" parent="1" source="EJtMW89hsBr0FEiRAVRH-8" target="EJtMW89hsBr0FEiRAVRH-9" edge="1">
          <mxGeometry relative="1" as="geometry">
            <mxPoint x="940" y="260" as="sourcePoint" />
            <mxPoint x="1100" y="260" as="targetPoint" />
          </mxGeometry>
        </mxCell>
        <mxCell id="EJtMW89hsBr0FEiRAVRH-22" value="" style="endArrow=none;html=1;rounded=0;exitX=0.5;exitY=0;exitDx=0;exitDy=0;entryX=0.5;entryY=1;entryDx=0;entryDy=0;" parent="1" source="EJtMW89hsBr0FEiRAVRH-8" target="EJtMW89hsBr0FEiRAVRH-10" edge="1">
          <mxGeometry relative="1" as="geometry">
            <mxPoint x="1060" y="410" as="sourcePoint" />
            <mxPoint x="1100" y="430" as="targetPoint" />
          </mxGeometry>
        </mxCell>
        <mxCell id="EJtMW89hsBr0FEiRAVRH-23" value="Bezeichnung" style="ellipse;whiteSpace=wrap;html=1;strokeColor=#66B2FF;" parent="1" vertex="1">
          <mxGeometry x="1381" y="170" width="100" height="60" as="geometry" />
        </mxCell>
        <mxCell id="EJtMW89hsBr0FEiRAVRH-24" value="" style="endArrow=none;html=1;rounded=0;exitX=1;exitY=0.5;exitDx=0;exitDy=0;entryX=0;entryY=0.5;entryDx=0;entryDy=0;" parent="1" source="EJtMW89hsBr0FEiRAVRH-5" target="EJtMW89hsBr0FEiRAVRH-23" edge="1">
          <mxGeometry relative="1" as="geometry">
            <mxPoint x="940" y="260" as="sourcePoint" />
            <mxPoint x="1100" y="260" as="targetPoint" />
          </mxGeometry>
        </mxCell>
        <mxCell id="EJtMW89hsBr0FEiRAVRH-25" value="" style="endArrow=none;html=1;rounded=0;exitX=0.5;exitY=0;exitDx=0;exitDy=0;entryX=0.5;entryY=1;entryDx=0;entryDy=0;" parent="1" source="EJtMW89hsBr0FEiRAVRH-5" target="EJtMW89hsBr0FEiRAVRH-6" edge="1">
          <mxGeometry relative="1" as="geometry">
            <mxPoint x="940" y="260" as="sourcePoint" />
            <mxPoint x="1100" y="260" as="targetPoint" />
          </mxGeometry>
        </mxCell>
        <mxCell id="EJtMW89hsBr0FEiRAVRH-26" value="Zutatenmenge" style="ellipse;whiteSpace=wrap;html=1;strokeColor=#66B2FF;" parent="1" vertex="1">
          <mxGeometry x="1020" y="400" width="100" height="60" as="geometry" />
        </mxCell>
        <mxCell id="EJtMW89hsBr0FEiRAVRH-27" value="" style="endArrow=none;html=1;rounded=0;exitX=1;exitY=0;exitDx=0;exitDy=0;entryX=0;entryY=1;entryDx=0;entryDy=0;" parent="1" source="EJtMW89hsBr0FEiRAVRH-26" target="EJtMW89hsBr0FEiRAVRH-8" edge="1">
          <mxGeometry relative="1" as="geometry">
            <mxPoint x="1060" y="410" as="sourcePoint" />
            <mxPoint x="1100" y="430" as="targetPoint" />
          </mxGeometry>
        </mxCell>
        <mxCell id="EJtMW89hsBr0FEiRAVRH-34" value="TypNr" style="ellipse;whiteSpace=wrap;html=1;strokeColor=#66B2FF;fontStyle=4" parent="1" vertex="1">
          <mxGeometry x="1330" y="515" width="100" height="60" as="geometry" />
        </mxCell>
        <mxCell id="EJtMW89hsBr0FEiRAVRH-35" value="" style="endArrow=none;html=1;rounded=0;exitX=0.5;exitY=1;exitDx=0;exitDy=0;" parent="1" source="EJtMW89hsBr0FEiRAVRH-36" target="EJtMW89hsBr0FEiRAVRH-34" edge="1">
          <mxGeometry relative="1" as="geometry">
            <mxPoint x="1340" y="210" as="sourcePoint" />
            <mxPoint x="1390" y="210" as="targetPoint" />
          </mxGeometry>
        </mxCell>
        <mxCell id="EJtMW89hsBr0FEiRAVRH-36" value="Sammlungstyp" style="rounded=0;whiteSpace=wrap;html=1;strokeWidth=3;" parent="1" vertex="1">
          <mxGeometry x="1320" y="410" width="120" height="60" as="geometry" />
        </mxCell>
        <mxCell id="EJtMW89hsBr0FEiRAVRH-38" value="enthält" style="rhombus;whiteSpace=wrap;html=1;strokeColor=#FFB366;strokeWidth=3;" parent="1" vertex="1">
          <mxGeometry x="1270" y="270" width="80" height="80" as="geometry" />
        </mxCell>
        <mxCell id="EJtMW89hsBr0FEiRAVRH-39" style="edgeStyle=orthogonalEdgeStyle;rounded=0;orthogonalLoop=1;jettySize=auto;html=1;exitX=1;exitY=0.5;exitDx=0;exitDy=0;entryX=0;entryY=0.5;entryDx=0;entryDy=0;endArrow=none;endFill=0;" parent="1" edge="1">
          <mxGeometry relative="1" as="geometry">
            <mxPoint x="305" y="350" as="sourcePoint" />
            <mxPoint x="480" y="350" as="targetPoint" />
          </mxGeometry>
        </mxCell>
        <mxCell id="EJtMW89hsBr0FEiRAVRH-40" value="" style="endArrow=none;html=1;rounded=0;" parent="1" source="EJtMW89hsBr0FEiRAVRH-38" target="EJtMW89hsBr0FEiRAVRH-5" edge="1">
          <mxGeometry relative="1" as="geometry">
            <mxPoint x="1060" y="310" as="sourcePoint" />
            <mxPoint x="1220" y="310" as="targetPoint" />
          </mxGeometry>
        </mxCell>
        <mxCell id="EJtMW89hsBr0FEiRAVRH-41" value="1" style="resizable=0;html=1;whiteSpace=wrap;align=right;verticalAlign=bottom;fontSize=15;" parent="EJtMW89hsBr0FEiRAVRH-40" connectable="0" vertex="1">
          <mxGeometry x="1" relative="1" as="geometry">
            <mxPoint x="-4" y="20" as="offset" />
          </mxGeometry>
        </mxCell>
        <mxCell id="EJtMW89hsBr0FEiRAVRH-42" value="" style="endArrow=none;html=1;rounded=0;" parent="1" source="EJtMW89hsBr0FEiRAVRH-38" target="EJtMW89hsBr0FEiRAVRH-36" edge="1">
          <mxGeometry relative="1" as="geometry">
            <mxPoint x="980" y="310" as="sourcePoint" />
            <mxPoint x="1140" y="310" as="targetPoint" />
          </mxGeometry>
        </mxCell>
        <mxCell id="EJtMW89hsBr0FEiRAVRH-43" value="n" style="resizable=0;html=1;whiteSpace=wrap;align=right;verticalAlign=bottom;fontSize=15;fontStyle=1" parent="EJtMW89hsBr0FEiRAVRH-42" connectable="0" vertex="1">
          <mxGeometry x="1" relative="1" as="geometry">
            <mxPoint x="7" y="-10" as="offset" />
          </mxGeometry>
        </mxCell>
        <mxCell id="EJtMW89hsBr0FEiRAVRH-44" value="Allergene" style="rounded=0;whiteSpace=wrap;html=1;strokeWidth=3;" parent="1" vertex="1">
          <mxGeometry x="505" y="740" width="120" height="60" as="geometry" />
        </mxCell>
        <mxCell id="EJtMW89hsBr0FEiRAVRH-45" value="&lt;u&gt;AllergenNr&lt;/u&gt;" style="ellipse;whiteSpace=wrap;html=1;strokeColor=#66B2FF;" parent="1" vertex="1">
          <mxGeometry x="335" y="820" width="100" height="60" as="geometry" />
        </mxCell>
        <mxCell id="EJtMW89hsBr0FEiRAVRH-46" value="Bezeichnung" style="ellipse;whiteSpace=wrap;html=1;strokeColor=#66B2FF;" parent="1" vertex="1">
          <mxGeometry x="475" y="840" width="100" height="60" as="geometry" />
        </mxCell>
        <mxCell id="EJtMW89hsBr0FEiRAVRH-47" value="" style="endArrow=none;html=1;rounded=0;" parent="1" source="EJtMW89hsBr0FEiRAVRH-45" target="EJtMW89hsBr0FEiRAVRH-44" edge="1">
          <mxGeometry relative="1" as="geometry">
            <mxPoint x="565" y="760" as="sourcePoint" />
            <mxPoint x="725" y="760" as="targetPoint" />
          </mxGeometry>
        </mxCell>
        <mxCell id="EJtMW89hsBr0FEiRAVRH-48" value="" style="endArrow=none;html=1;rounded=0;" parent="1" source="EJtMW89hsBr0FEiRAVRH-46" target="EJtMW89hsBr0FEiRAVRH-44" edge="1">
          <mxGeometry relative="1" as="geometry">
            <mxPoint x="435" y="842" as="sourcePoint" />
            <mxPoint x="515" y="807" as="targetPoint" />
          </mxGeometry>
        </mxCell>
        <mxCell id="EJtMW89hsBr0FEiRAVRH-49" value="enthält" style="rhombus;whiteSpace=wrap;html=1;strokeColor=#FFB366;strokeWidth=3;" parent="1" vertex="1">
          <mxGeometry x="630" y="570" width="80" height="80" as="geometry" />
        </mxCell>
        <mxCell id="EJtMW89hsBr0FEiRAVRH-50" value="&lt;u&gt;AllergenNr&lt;/u&gt;" style="ellipse;whiteSpace=wrap;html=1;strokeColor=#66B2FF;" parent="1" vertex="1">
          <mxGeometry x="475" y="590" width="100" height="60" as="geometry" />
        </mxCell>
        <mxCell id="EJtMW89hsBr0FEiRAVRH-52" value="&lt;u&gt;ZutatenNr&lt;/u&gt;" style="ellipse;whiteSpace=wrap;html=1;strokeColor=#66B2FF;" parent="1" vertex="1">
          <mxGeometry x="405" y="690" width="100" height="60" as="geometry" />
        </mxCell>
        <mxCell id="EJtMW89hsBr0FEiRAVRH-53" value="" style="endArrow=none;html=1;rounded=0;" parent="1" source="EJtMW89hsBr0FEiRAVRH-49" target="EJtMW89hsBr0FEiRAVRH-50" edge="1">
          <mxGeometry relative="1" as="geometry">
            <mxPoint x="435" y="842" as="sourcePoint" />
            <mxPoint x="515" y="807" as="targetPoint" />
          </mxGeometry>
        </mxCell>
        <mxCell id="EJtMW89hsBr0FEiRAVRH-54" value="" style="endArrow=none;html=1;rounded=0;" parent="1" source="EJtMW89hsBr0FEiRAVRH-52" target="EJtMW89hsBr0FEiRAVRH-49" edge="1">
          <mxGeometry relative="1" as="geometry">
            <mxPoint x="445" y="852" as="sourcePoint" />
            <mxPoint x="525" y="817" as="targetPoint" />
          </mxGeometry>
        </mxCell>
        <mxCell id="EJtMW89hsBr0FEiRAVRH-56" value="" style="endArrow=none;html=1;rounded=0;" parent="1" source="EJtMW89hsBr0FEiRAVRH-49" target="EJtMW89hsBr0FEiRAVRH-44" edge="1">
          <mxGeometry relative="1" as="geometry">
            <mxPoint x="800" y="580" as="sourcePoint" />
            <mxPoint x="960" y="580" as="targetPoint" />
          </mxGeometry>
        </mxCell>
        <mxCell id="EJtMW89hsBr0FEiRAVRH-57" value="n" style="resizable=0;html=1;whiteSpace=wrap;align=right;verticalAlign=bottom;fontSize=15;fontStyle=1" parent="EJtMW89hsBr0FEiRAVRH-56" connectable="0" vertex="1">
          <mxGeometry x="1" relative="1" as="geometry" />
        </mxCell>
        <mxCell id="EJtMW89hsBr0FEiRAVRH-58" value="" style="endArrow=none;html=1;rounded=0;" parent="1" source="EJtMW89hsBr0FEiRAVRH-49" target="c1oTMmdCXk3jECOC1Jwr-15" edge="1">
          <mxGeometry relative="1" as="geometry">
            <mxPoint x="570" y="640" as="sourcePoint" />
            <mxPoint x="580" y="590" as="targetPoint" />
          </mxGeometry>
        </mxCell>
        <mxCell id="EJtMW89hsBr0FEiRAVRH-59" value="m" style="resizable=0;html=1;whiteSpace=wrap;align=right;verticalAlign=bottom;fontStyle=1" parent="EJtMW89hsBr0FEiRAVRH-58" connectable="0" vertex="1">
          <mxGeometry x="1" relative="1" as="geometry">
            <mxPoint x="-10" as="offset" />
          </mxGeometry>
        </mxCell>
        <mxCell id="EJtMW89hsBr0FEiRAVRH-60" value="Ernährungskategorie" style="rounded=0;whiteSpace=wrap;html=1;strokeWidth=3;" parent="1" vertex="1">
          <mxGeometry x="820" y="720" width="120" height="60" as="geometry" />
        </mxCell>
        <mxCell id="EJtMW89hsBr0FEiRAVRH-61" value="&lt;u&gt;KategorieNr&lt;/u&gt;" style="ellipse;whiteSpace=wrap;html=1;strokeColor=#66B2FF;" parent="1" vertex="1">
          <mxGeometry x="860" y="820" width="100" height="60" as="geometry" />
        </mxCell>
        <mxCell id="EJtMW89hsBr0FEiRAVRH-62" value="Bezeichnung" style="ellipse;whiteSpace=wrap;html=1;strokeColor=#66B2FF;" parent="1" vertex="1">
          <mxGeometry x="990" y="710" width="100" height="60" as="geometry" />
        </mxCell>
        <mxCell id="EJtMW89hsBr0FEiRAVRH-63" value="" style="endArrow=none;html=1;rounded=0;" parent="1" source="EJtMW89hsBr0FEiRAVRH-61" target="EJtMW89hsBr0FEiRAVRH-60" edge="1">
          <mxGeometry relative="1" as="geometry">
            <mxPoint x="762.5" y="760" as="sourcePoint" />
            <mxPoint x="922.5" y="760" as="targetPoint" />
          </mxGeometry>
        </mxCell>
        <mxCell id="EJtMW89hsBr0FEiRAVRH-64" value="" style="endArrow=none;html=1;rounded=0;" parent="1" source="EJtMW89hsBr0FEiRAVRH-62" target="EJtMW89hsBr0FEiRAVRH-60" edge="1">
          <mxGeometry relative="1" as="geometry">
            <mxPoint x="632.5" y="842" as="sourcePoint" />
            <mxPoint x="712.5" y="807" as="targetPoint" />
          </mxGeometry>
        </mxCell>
        <mxCell id="EJtMW89hsBr0FEiRAVRH-65" value="enthält" style="rhombus;whiteSpace=wrap;html=1;strokeColor=#FFB366;strokeWidth=3;" parent="1" vertex="1">
          <mxGeometry x="837.5" y="580" width="80" height="80" as="geometry" />
        </mxCell>
        <mxCell id="EJtMW89hsBr0FEiRAVRH-66" value="&lt;u&gt;KategorieNr&lt;/u&gt;" style="ellipse;whiteSpace=wrap;html=1;strokeColor=#66B2FF;" parent="1" vertex="1">
          <mxGeometry x="950" y="630" width="100" height="60" as="geometry" />
        </mxCell>
        <mxCell id="EJtMW89hsBr0FEiRAVRH-67" value="&lt;u&gt;ZutatenNr&lt;/u&gt;" style="ellipse;whiteSpace=wrap;html=1;strokeColor=#66B2FF;" parent="1" vertex="1">
          <mxGeometry x="1040" y="570" width="100" height="60" as="geometry" />
        </mxCell>
        <mxCell id="EJtMW89hsBr0FEiRAVRH-68" value="" style="endArrow=none;html=1;rounded=0;" parent="1" source="EJtMW89hsBr0FEiRAVRH-65" target="EJtMW89hsBr0FEiRAVRH-66" edge="1">
          <mxGeometry relative="1" as="geometry">
            <mxPoint x="632.5" y="842" as="sourcePoint" />
            <mxPoint x="712.5" y="807" as="targetPoint" />
          </mxGeometry>
        </mxCell>
        <mxCell id="EJtMW89hsBr0FEiRAVRH-69" value="" style="endArrow=none;html=1;rounded=0;" parent="1" source="EJtMW89hsBr0FEiRAVRH-67" target="EJtMW89hsBr0FEiRAVRH-65" edge="1">
          <mxGeometry relative="1" as="geometry">
            <mxPoint x="642.5" y="852" as="sourcePoint" />
            <mxPoint x="722.5" y="817" as="targetPoint" />
          </mxGeometry>
        </mxCell>
        <mxCell id="EJtMW89hsBr0FEiRAVRH-70" value="" style="endArrow=none;html=1;rounded=0;" parent="1" source="EJtMW89hsBr0FEiRAVRH-65" target="EJtMW89hsBr0FEiRAVRH-60" edge="1">
          <mxGeometry relative="1" as="geometry">
            <mxPoint x="997.5" y="580" as="sourcePoint" />
            <mxPoint x="1157.5" y="580" as="targetPoint" />
          </mxGeometry>
        </mxCell>
        <mxCell id="EJtMW89hsBr0FEiRAVRH-71" value="n" style="resizable=0;html=1;whiteSpace=wrap;align=right;verticalAlign=bottom;fontSize=15;fontStyle=1" parent="EJtMW89hsBr0FEiRAVRH-70" connectable="0" vertex="1">
          <mxGeometry x="1" relative="1" as="geometry" />
        </mxCell>
        <mxCell id="EJtMW89hsBr0FEiRAVRH-72" value="" style="endArrow=none;html=1;rounded=0;" parent="1" source="EJtMW89hsBr0FEiRAVRH-65" target="c1oTMmdCXk3jECOC1Jwr-15" edge="1">
          <mxGeometry relative="1" as="geometry">
            <mxPoint x="997.5" y="580" as="sourcePoint" />
            <mxPoint x="1007.5" y="530" as="targetPoint" />
          </mxGeometry>
        </mxCell>
        <mxCell id="EJtMW89hsBr0FEiRAVRH-73" value="m" style="resizable=0;html=1;whiteSpace=wrap;align=right;verticalAlign=bottom;fontStyle=1" parent="EJtMW89hsBr0FEiRAVRH-72" connectable="0" vertex="1">
          <mxGeometry x="1" relative="1" as="geometry">
            <mxPoint x="-10" as="offset" />
          </mxGeometry>
        </mxCell>
        <mxCell id="EJtMW89hsBr0FEiRAVRH-74" value="Rabatt" style="ellipse;whiteSpace=wrap;html=1;strokeColor=#66B2FF;" parent="1" vertex="1">
          <mxGeometry x="1360" y="80" width="100" height="60" as="geometry" />
        </mxCell>
        <mxCell id="EJtMW89hsBr0FEiRAVRH-75" value="" style="endArrow=none;html=1;rounded=0;" parent="1" source="EJtMW89hsBr0FEiRAVRH-5" target="EJtMW89hsBr0FEiRAVRH-74" edge="1">
          <mxGeometry relative="1" as="geometry">
            <mxPoint x="1130" y="100" as="sourcePoint" />
            <mxPoint x="1290" y="100" as="targetPoint" />
          </mxGeometry>
        </mxCell>
        <mxCell id="EJtMW89hsBr0FEiRAVRH-76" style="edgeStyle=none;rounded=0;orthogonalLoop=1;jettySize=auto;html=1;endArrow=none;endFill=0;" parent="1" source="EJtMW89hsBr0FEiRAVRH-77" target="EJtMW89hsBr0FEiRAVRH-84" edge="1">
          <mxGeometry relative="1" as="geometry">
            <mxPoint x="1445" y="-108" as="targetPoint" />
          </mxGeometry>
        </mxCell>
        <mxCell id="EJtMW89hsBr0FEiRAVRH-77" value="enthält" style="rhombus;whiteSpace=wrap;html=1;strokeColor=#FFB366;strokeWidth=3;" parent="1" vertex="1">
          <mxGeometry x="1160" y="-70" width="80" height="80" as="geometry" />
        </mxCell>
        <mxCell id="EJtMW89hsBr0FEiRAVRH-78" style="rounded=0;orthogonalLoop=1;jettySize=auto;html=1;exitX=0;exitY=1;exitDx=0;exitDy=0;endArrow=none;endFill=0;" parent="1" source="EJtMW89hsBr0FEiRAVRH-79" target="EJtMW89hsBr0FEiRAVRH-77" edge="1">
          <mxGeometry relative="1" as="geometry">
            <mxPoint x="1310" y="-70" as="targetPoint" />
          </mxGeometry>
        </mxCell>
        <mxCell id="EJtMW89hsBr0FEiRAVRH-79" value="&lt;u&gt;BestellNr&lt;/u&gt;" style="ellipse;whiteSpace=wrap;html=1;strokeColor=#66B2FF;" parent="1" vertex="1">
          <mxGeometry x="1330" y="-180" width="100" height="60" as="geometry" />
        </mxCell>
        <mxCell id="EJtMW89hsBr0FEiRAVRH-82" value="&lt;u&gt;SammlungsNr&lt;/u&gt;" style="ellipse;whiteSpace=wrap;html=1;strokeColor=#66B2FF;" parent="1" vertex="1">
          <mxGeometry x="1160" y="-205" width="100" height="60" as="geometry" />
        </mxCell>
        <mxCell id="EJtMW89hsBr0FEiRAVRH-83" value="" style="endArrow=none;html=1;rounded=0;" parent="1" source="EJtMW89hsBr0FEiRAVRH-82" target="EJtMW89hsBr0FEiRAVRH-77" edge="1">
          <mxGeometry relative="1" as="geometry">
            <mxPoint x="1390" y="60" as="sourcePoint" />
            <mxPoint x="1550" y="60" as="targetPoint" />
          </mxGeometry>
        </mxCell>
        <mxCell id="EJtMW89hsBr0FEiRAVRH-84" value="Menge" style="ellipse;whiteSpace=wrap;html=1;strokeColor=#66B2FF;" parent="1" vertex="1">
          <mxGeometry x="1410" y="-120" width="100" height="60" as="geometry" />
        </mxCell>
        <mxCell id="EJtMW89hsBr0FEiRAVRH-87" value="" style="endArrow=none;html=1;rounded=0;" parent="1" source="EJtMW89hsBr0FEiRAVRH-77" target="EJtMW89hsBr0FEiRAVRH-5" edge="1">
          <mxGeometry relative="1" as="geometry">
            <mxPoint x="490" y="40" as="sourcePoint" />
            <mxPoint x="650" y="40" as="targetPoint" />
          </mxGeometry>
        </mxCell>
        <mxCell id="EJtMW89hsBr0FEiRAVRH-88" value="m" style="resizable=0;html=1;whiteSpace=wrap;align=right;verticalAlign=bottom;fontSize=15;fontStyle=1" parent="EJtMW89hsBr0FEiRAVRH-87" connectable="0" vertex="1">
          <mxGeometry x="1" relative="1" as="geometry">
            <mxPoint x="-21" y="-10" as="offset" />
          </mxGeometry>
        </mxCell>
        <mxCell id="EJtMW89hsBr0FEiRAVRH-91" value="" style="endArrow=none;html=1;rounded=0;" parent="1" source="EJtMW89hsBr0FEiRAVRH-77" target="c1oTMmdCXk3jECOC1Jwr-45" edge="1">
          <mxGeometry relative="1" as="geometry">
            <mxPoint x="700" y="80" as="sourcePoint" />
            <mxPoint x="860" y="80" as="targetPoint" />
          </mxGeometry>
        </mxCell>
        <mxCell id="EJtMW89hsBr0FEiRAVRH-92" value="n" style="resizable=0;html=1;whiteSpace=wrap;align=right;verticalAlign=bottom;fontSize=15;fontStyle=1" parent="EJtMW89hsBr0FEiRAVRH-91" connectable="0" vertex="1">
          <mxGeometry x="1" relative="1" as="geometry">
            <mxPoint x="21" y="32" as="offset" />
          </mxGeometry>
        </mxCell>
        <mxCell id="mSKAH-FTgtNJf7MdxuZf-1" value="TypBezeichnung" style="ellipse;whiteSpace=wrap;html=1;strokeColor=#66B2FF;" parent="1" vertex="1">
          <mxGeometry x="1481" y="410" width="100" height="60" as="geometry" />
        </mxCell>
        <mxCell id="mSKAH-FTgtNJf7MdxuZf-2" value="" style="endArrow=none;html=1;rounded=0;" parent="1" source="EJtMW89hsBr0FEiRAVRH-36" target="mSKAH-FTgtNJf7MdxuZf-1" edge="1">
          <mxGeometry relative="1" as="geometry">
            <mxPoint x="1320" y="380" as="sourcePoint" />
            <mxPoint x="1480" y="380" as="targetPoint" />
          </mxGeometry>
        </mxCell>
        <mxCell id="yqdDlNaOUDpMoe0G551B-1" value="Passwort" style="ellipse;whiteSpace=wrap;html=1;strokeColor=#66B2FF;" vertex="1" parent="1">
          <mxGeometry x="550" y="-410" width="100" height="60" as="geometry" />
        </mxCell>
        <mxCell id="yqdDlNaOUDpMoe0G551B-2" style="edgeStyle=none;rounded=0;orthogonalLoop=1;jettySize=auto;html=1;endArrow=none;endFill=0;" edge="1" parent="1" source="yqdDlNaOUDpMoe0G551B-1" target="c1oTMmdCXk3jECOC1Jwr-55">
          <mxGeometry relative="1" as="geometry">
            <mxPoint x="630" y="-460" as="sourcePoint" />
            <mxPoint x="770" y="-430" as="targetPoint" />
          </mxGeometry>
        </mxCell>
      </root>
    </mxGraphModel>
  </diagram>
</mxfile>
